<svg viewBox="57.08571428571428 57.143428257533486 751.6285714285714 758.7377418639168" version="1.1" xmlns:xlink="http://www.w3.org/1999/xlink" xmlns="http://www.w3.org/2000/svg" style="max-height: 500px" width="751.6285714285714" height="758.7377418639168">
			
			<g transform="scale(8.571428571428571) translate(10, 10)">
				<defs id="SvgjsDefs8384"/><g fill="#fff" transform="matrix(1,0,0,1,-10.038999557495117,-10)" id="SvgjsG8385"><path d="M11.039,90.001h59.465c0.553,0,1-0.447,1-1v-11.79c10.354-0.526,18.621-9.089,18.621-19.57V45.937  c0-2.518-2.049-4.566-4.566-4.566h-1.74v-8.796c0-7.004-5.44-12.749-12.314-13.264V11c0-0.553-0.447-1-1-1H11.039  c-0.553,0-1,0.447-1,1v78.001C10.039,89.554,10.486,90.001,11.039,90.001z M88.125,45.937v11.704  c0,9.716-7.905,17.621-17.621,17.621s-17.621-7.905-17.621-17.621V45.937c0-1.415,1.151-2.566,2.566-2.566h30.109  C86.974,43.37,88.125,44.521,88.125,45.937z M77.431,41.37h-5.927V25.586c3.346,0.487,5.927,3.367,5.927,6.846V41.37z M69.504,41.37  h-5.927v-8.938c0-3.479,2.581-6.359,5.927-6.846V41.37z M81.818,32.574v8.796h-2.388v-8.938c0-4.922-4.005-8.927-8.927-8.927  s-8.927,4.005-8.927,8.927v8.938H59.19v-8.796c0-6.239,5.075-11.314,11.313-11.314C76.743,21.26,81.818,26.335,81.818,32.574z   M19.625,23.688v-5.14H25v5.14H19.625z M27,18.548h34.577v4.177c-0.336,0.305-0.655,0.625-0.959,0.963H27V18.548z M12.039,12h57.465  v7.31c-2.161,0.162-4.174,0.841-5.927,1.915v-3.678c0-0.553-0.447-1-1-1H18.625c-0.553,0-1,0.447-1,1v7.14c0,0.553,0.447,1,1,1  h40.506c-1.223,2.012-1.941,4.364-1.941,6.887v8.796h-1.741c-2.518,0-4.566,2.049-4.566,4.566v11.704  c0,10.482,8.268,19.045,18.621,19.57v10.79H12.039V12z" xmlns="http://www.w3.org/2000/svg"/><path d="M67.844,58.518v2.688c0,1.467,1.193,2.66,2.66,2.66s2.66-1.193,2.66-2.66v-2.688c1.072-0.822,1.719-2.106,1.719-3.475  c0-2.414-1.965-4.379-4.379-4.379s-4.378,1.965-4.378,4.379C66.126,56.413,66.771,57.696,67.844,58.518z M70.504,52.664  c1.312,0,2.379,1.067,2.379,2.379c0,0.854-0.464,1.646-1.212,2.07c-0.313,0.178-0.507,0.51-0.507,0.87v3.223  c0,0.364-0.296,0.66-0.66,0.66s-0.66-0.296-0.66-0.66v-3.223c0-0.36-0.194-0.693-0.508-0.87c-0.746-0.423-1.21-1.216-1.21-2.07  C68.126,53.731,69.192,52.664,70.504,52.664z" xmlns="http://www.w3.org/2000/svg"/><path d="M62.577,79.75H18.625c-0.553,0-1,0.447-1,1s0.447,1,1,1h43.952c0.553,0,1-0.447,1-1S63.13,79.75,62.577,79.75z" xmlns="http://www.w3.org/2000/svg"/><path d="M18.625,74.391H45.5c0.553,0,1-0.447,1-1V32.047c0-0.553-0.447-1-1-1H18.625c-0.553,0-1,0.447-1,1v41.344  C17.625,73.943,18.072,74.391,18.625,74.391z M19.625,33.047H44.5v39.344H19.625V33.047z" xmlns="http://www.w3.org/2000/svg"/></g><g fill="#fff" transform="matrix(1.298431396484375,0,0,1.298431396484375,98.83141034447424,13.832657872667813)" id="SvgjsG8386"><path d="M3.5 13.940000000000001 l0 3.6 l4.04 0 c1.08 0 2.62 -0.36 2.62 -1.68 c0 -1.26 -1.54 -1.92 -2.62 -1.92 l-4.04 0 z M3.5 8.4 l0 3.22 l4.04 0 c1.66 0 2.2 -0.7 2.2 -1.5 c0 -0.64 -0.52 -1.72 -2.2 -1.72 l-4.04 0 z M7.54 6 c2.76 0 4.82 1.24 4.82 4.06 c0 1.08 -0.52 2.12 -1.82 2.7 c1.64 0.5 2.24 2.24 2.24 3.12 c0 3.12 -2.34 4.12 -5.24 4.12 l-6.64 0 l0 -14 l6.64 0 z M16.88 6 l2.64 0 l0 11.56 l7.2 0 l0 2.44 l-9.84 0 l0 -14 z M36.980000000000004 5.720000000000001 c4.82 0 7.22 3.7 7.18 7.36 c-0.04 3.62 -2.26 7.24 -7.18 7.24 s-7.2 -3.54 -7.2 -7.22 s2.36 -7.38 7.2 -7.38 z M36.980000000000004 8.12 c-3.3 0 -4.66 2.66 -4.6 5.02 c0.06 2.3 1.3 4.76 4.6 4.76 s4.54 -2.48 4.58 -4.78 c0.04 -2.36 -1.28 -5 -4.58 -5 z M58.879999999999995 16.42 l1.8 1.82 c-1.44 1.42 -3.3 2.08 -5.32 2.08 c-5.2 0 -7.4 -3.58 -7.42 -7.22 c-0.02 -3.66 2.36 -7.38 7.42 -7.38 c1.9 0 3.7 0.72 5.14 2.14 l-1.76 1.7 c-0.92 -0.9 -2.16 -1.32 -3.38 -1.32 c-3.38 0 -4.84 2.52 -4.82 4.86 c0.02 2.32 1.36 4.74 4.82 4.74 c1.22 0 2.6 -0.5 3.52 -1.42 z M75.66 6 l0 0.08 l-6.22 6.7 l6.74 7.06 l0 0.16 l-3.26 0 l-5.86 -6.2 l0 6.2 l-2.64 0 l0 -14 l2.64 0 l0 5.92 l5.32 -5.92 l3.28 0 z M90.5 8.3 l-2.1 1.08 c-0.48 -0.8 -1.8 -1.56 -3.32 -1.56 c-1.96 0 -2.9 0.82 -2.9 1.86 c0 1.22 1.44 1.56 3.12 1.76 c2.92 0.36 5.64 1.12 5.64 4.46 c0 3.12 -2.76 4.46 -5.88 4.46 c-2.86 0 -5.06 -0.88 -6.1 -3.44 l2.2 -1.14 c0.62 1.54 2.24 2.22 3.94 2.22 c1.66 0 3.22 -0.58 3.22 -2.1 c0 -1.32 -1.38 -1.86 -3.24 -2.06 c-2.86 -0.34 -5.5 -1.1 -5.5 -4.24 c0 -2.88 2.84 -4.06 5.42 -4.08 c2.18 0 4.44 0.62 5.5 2.78 z M105.66000000000001 17.4 l0 2.6 l-10.48 0 l0 -14 l10.48 0 l0 2.56 l-7.86 0 l0 3.22 l7.58 0 l0 2.46 l-7.58 0 l0 3.16 l7.86 0 z M120.48 16.42 l1.8 1.82 c-1.44 1.42 -3.3 2.08 -5.32 2.08 c-5.2 0 -7.4 -3.58 -7.42 -7.22 c-0.02 -3.66 2.36 -7.38 7.42 -7.38 c1.9 0 3.7 0.72 5.14 2.14 l-1.76 1.7 c-0.92 -0.9 -2.16 -1.32 -3.38 -1.32 c-3.38 0 -4.84 2.52 -4.82 4.86 c0.02 2.32 1.36 4.74 4.82 4.74 c1.22 0 2.6 -0.5 3.52 -1.42 z M127.9 13.940000000000001 l0 3.6 l4.04 0 c1.08 0 2.62 -0.36 2.62 -1.68 c0 -1.26 -1.54 -1.92 -2.62 -1.92 l-4.04 0 z M127.9 8.4 l0 3.22 l4.04 0 c1.66 0 2.2 -0.7 2.2 -1.5 c0 -0.64 -0.52 -1.72 -2.2 -1.72 l-4.04 0 z M131.94 6 c2.76 0 4.82 1.24 4.82 4.06 c0 1.08 -0.52 2.12 -1.82 2.7 c1.64 0.5 2.24 2.24 2.24 3.12 c0 3.12 -2.34 4.12 -5.24 4.12 l-6.64 0 l0 -14 l6.64 0 z M153.70000000000002 19.82 l0 0.18 l-3.14 0 l-4.08 -4.68 l-2.54 0 l0 4.68 l-2.64 0 l0 -14.02 c2.22 0 4.44 0.02 6.66 0.02 c3.3 0.02 5.04 2.22 5.04 4.64 c0 1.92 -0.88 3.86 -3.54 4.4 z M147.96 8.46 l-4.02 0 l0 4.48 l4.02 0 c1.68 0 2.4 -1.12 2.4 -2.24 s-0.74 -2.24 -2.4 -2.24 z M168.14000000000001 20 l-1.18 -2.64 l-7.32 0 l-1.2 2.64 l-2.86 0 l6.28 -14 l2.88 0 l6.28 14 l-2.88 0 z M165.90000000000003 14.9 l-2.6 -5.96 l-2.6 5.96 l5.2 0 z M176.88000000000002 20 l-2.62 0 l0 -14 l2.62 0 l0 14 z M190.80000000000004 14.68 l0 -8.7 l2.64 0 l0 14.02 l-1.64 0 l0 0.02 l-7.36 -9.46 l0 9.44 l-2.64 0 l0 -14 l2.14 0 z"/></g><g fill="#fff" transform="matrix(0.4867078363895416,0,0,0.4867078363895416,103.62090534974418,47.31337247819853)" id="SvgjsG8387"><path d="M20.052 14.68 l0 -8.7 l2.64 0 l0 14.02 l-1.64 0 l0 0.02 l-7.36 -9.46 l0 9.44 l-2.64 0 l0 -14 l2.14 0 z M30.468 9.94 c3.14 0 5.16 2.32 5.16 5.14 c0 2.84 -1.94 5.14 -5.14 5.14 s-5.12 -2.3 -5.12 -5.14 c0 -2.82 1.96 -5.14 5.1 -5.14 z M30.488 12.16 c-1.76 0 -2.68 1.44 -2.68 2.92 c0 1.5 0.9 2.9 2.68 2.9 s2.68 -1.4 2.68 -2.9 c0 -1.48 -1.04 -2.92 -2.68 -2.92 z M39.00399999999999 7.619999999999999 l2.44 -0.26 l0 2.8 l2.72 0 l0 2.1 l-2.74 0 l0 4.26 c0 0.94 0.52 1.4 1.28 1.4 c0.38 0 0.82 -0.12 1.18 -0.3 l0.68 2.08 c-0.7 0.28 -1.28 0.4 -2.02 0.42 c-2.14 0.08 -3.54 -1.14 -3.54 -3.6 l0 -4.26 l-1.84 0 l0 -2.1 l1.84 0 l0 -2.54 z M46.879999999999995 6 l2.44 0 l0 5.48 c0.88 -1.14 1.96 -1.48 3.08 -1.48 c2.8 0 4.04 1.9 4.04 4.8 l0 5.2 l-2.44 0 l0 -5.18 c0 -1.8 -0.94 -2.56 -2.24 -2.56 c-1.44 0 -2.44 1.22 -2.44 2.7 l0 5.04 l-2.44 0 l0 -14 z M61.836000000000006 10.1 l-2.44 0 l0 9.9 l2.44 0 l0 -9.9 z M59.176 7.359999999999999 c0 -1.9 2.88 -1.9 2.88 0 s-2.88 1.9 -2.88 0 z M74.632 20 l-2.44 0 l0 -5.16 c0 -1.5 -0.82 -2.64 -2.38 -2.64 c-1.5 0 -2.52 1.26 -2.52 2.76 l0 5.04 l-2.42 0 l0 -9.88 l2.18 0 l0.16 1.34 c1 -0.98 2 -1.48 3.24 -1.48 c2.32 0 4.18 1.74 4.18 4.84 l0 5.18 z M84.388 10.38 l0.98 -1.24 l1.8 1.36 l-1.1 1.4 c0.76 0.86 1.04 1.84 1.04 2.92 c0 1.22 -0.46 2.94 -2.08 3.68 c1.64 0.82 2.04 2 2.04 3.26 c0 2.72 -2.08 4.4 -4.94 4.4 s-5 -1.74 -5 -4.4 l2.42 0 c0 1.28 1.18 2.12 2.58 2.12 s2.5 -0.76 2.5 -2.12 s-1.28 -1.98 -2.5 -1.98 c-3.08 0 -5 -1.88 -5 -4.96 s2.24 -5 5 -5 c0.78 0 1.58 0.1 2.26 0.56 z M82.128 12.04 c-1.42 0 -2.58 1.06 -2.58 2.78 s1.16 2.74 2.58 2.74 c1.4 0 2.56 -1.04 2.56 -2.74 s-1.16 -2.78 -2.56 -2.78 z M96.94000000000001 10.1 l-2.44 0 l0 9.9 l2.44 0 l0 -9.9 z M94.28000000000002 7.359999999999999 c0 -1.9 2.88 -1.9 2.88 0 s-2.88 1.9 -2.88 0 z M107.83600000000001 11.16 l-1.36 1.6 c-0.7 -0.66 -1.5 -0.88 -2.44 -0.88 c-1.16 0 -1.8 0.36 -1.8 0.98 c0 0.64 0.58 1 1.84 1.08 c1.86 0.12 4.22 0.54 4.22 3.16 c0 1.74 -1.42 3.24 -4.24 3.24 c-1.56 0 -3.12 -0.26 -4.56 -1.76 l1.2 -1.74 c0.7 0.78 2.3 1.36 3.4 1.38 c0.92 0.02 1.78 -0.46 1.78 -1.18 c0 -0.68 -0.56 -0.96 -1.96 -1.04 c-1.86 -0.14 -4.08 -0.82 -4.08 -3.06 c0 -2.28 2.36 -3.08 4.16 -3.08 c1.54 0 2.7 0.3 3.84 1.3 z M126.60800000000003 8.3 l-2.1 1.08 c-0.48 -0.8 -1.8 -1.56 -3.32 -1.56 c-1.96 0 -2.9 0.82 -2.9 1.86 c0 1.22 1.44 1.56 3.12 1.76 c2.92 0.36 5.64 1.12 5.64 4.46 c0 3.12 -2.76 4.46 -5.88 4.46 c-2.86 0 -5.06 -0.88 -6.1 -3.44 l2.2 -1.14 c0.62 1.54 2.24 2.22 3.94 2.22 c1.66 0 3.22 -0.58 3.22 -2.1 c0 -1.32 -1.38 -1.86 -3.24 -2.06 c-2.86 -0.34 -5.5 -1.1 -5.5 -4.24 c0 -2.88 2.84 -4.06 5.42 -4.08 c2.18 0 4.44 0.62 5.5 2.78 z M140.22400000000005 15.940000000000001 l-7.7 0 c0.16 1.22 1.22 2.1 2.94 2.1 c0.9 0 2.08 -0.34 2.64 -0.92 l1.56 1.54 c-1.04 1.08 -2.74 1.6 -4.24 1.6 c-3.4 0 -5.42 -2.1 -5.42 -5.26 c0 -3 2.04 -5.16 5.24 -5.16 c3.3 0 5.36 2.04 4.98 6.1 z M132.56400000000002 13.92 l5.32 0 c-0.16 -1.28 -1.16 -1.92 -2.56 -1.92 c-1.32 0 -2.4 0.64 -2.76 1.92 z M149.82000000000005 17.14 l1.64 1.6 c-1.14 1.12 -2.34 1.56 -3.8 1.56 c-2.86 0 -5.24 -1.72 -5.24 -5.22 s2.38 -5.22 5.24 -5.22 c1.4 0 2.48 0.4 3.56 1.46 l-1.54 1.62 c-0.58 -0.52 -1.3 -0.78 -1.98 -0.78 c-1.64 0 -2.84 1.2 -2.84 2.92 c0 1.88 1.28 2.88 2.8 2.88 c0.78 0 1.56 -0.22 2.16 -0.82 z M153.49600000000007 10.14 l2.44 0 l0 5.16 c0 1.5 0.82 2.64 2.38 2.64 c1.5 0 2.52 -1.26 2.52 -2.76 l0 -5.04 l2.42 0 l0 9.88 l-2.18 0 l-0.16 -1.34 c-1.02 1 -1.96 1.48 -3.34 1.48 c-2.36 0 -4.08 -1.78 -4.08 -4.84 l0 -5.18 z M166.31200000000007 10.14 l2.26 0 l0.18 1.14 c0.76 -1.22 1.78 -1.4 2.78 -1.4 c1.02 0 2 0.4 2.54 0.94 l-1.1 2.12 c-0.5 -0.42 -0.96 -0.64 -1.76 -0.64 c-1.28 0 -2.46 0.68 -2.46 2.5 l0 5.2 l-2.44 0 l0 -9.86 z M185.66800000000006 15.940000000000001 l-7.7 0 c0.16 1.22 1.22 2.1 2.94 2.1 c0.9 0 2.08 -0.34 2.64 -0.92 l1.56 1.54 c-1.04 1.08 -2.74 1.6 -4.24 1.6 c-3.4 0 -5.42 -2.1 -5.42 -5.26 c0 -3 2.04 -5.16 5.24 -5.16 c3.3 0 5.36 2.04 4.98 6.1 z M178.00800000000004 13.92 l5.32 0 c-0.16 -1.28 -1.16 -1.92 -2.56 -1.92 c-1.32 0 -2.4 0.64 -2.76 1.92 z M193.56000000000006 6 l2.64 0 l0 11.56 l7.2 0 l0 2.44 l-9.84 0 l0 -14 z M215.75600000000009 15.940000000000001 l-7.7 0 c0.16 1.22 1.22 2.1 2.94 2.1 c0.9 0 2.08 -0.34 2.64 -0.92 l1.56 1.54 c-1.04 1.08 -2.74 1.6 -4.24 1.6 c-3.4 0 -5.42 -2.1 -5.42 -5.26 c0 -3 2.04 -5.16 5.24 -5.16 c3.3 0 5.36 2.04 4.98 6.1 z M208.09600000000006 13.92 l5.32 0 c-0.16 -1.28 -1.16 -1.92 -2.56 -1.92 c-1.32 0 -2.4 0.64 -2.76 1.92 z M219.1120000000001 7.619999999999999 l2.44 -0.26 l0 2.8 l2.72 0 l0 2.1 l-2.74 0 l0 4.26 c0 0.94 0.52 1.4 1.28 1.4 c0.38 0 0.82 -0.12 1.18 -0.3 l0.68 2.08 c-0.7 0.28 -1.28 0.4 -2.02 0.42 c-2.14 0.08 -3.54 -1.14 -3.54 -3.6 l0 -4.26 l-1.84 0 l0 -2.1 l1.84 0 l0 -2.54 z M227.0880000000001 6.02 l2.22 0 l0 5.36 l-2.22 0 l0 -5.36 z M239.96400000000008 11.16 l-1.36 1.6 c-0.7 -0.66 -1.5 -0.88 -2.44 -0.88 c-1.16 0 -1.8 0.36 -1.8 0.98 c0 0.64 0.58 1 1.84 1.08 c1.86 0.12 4.22 0.54 4.22 3.16 c0 1.74 -1.42 3.24 -4.24 3.24 c-1.56 0 -3.12 -0.26 -4.56 -1.76 l1.2 -1.74 c0.7 0.78 2.3 1.36 3.4 1.38 c0.92 0.02 1.78 -0.46 1.78 -1.18 c0 -0.68 -0.56 -0.96 -1.96 -1.04 c-1.86 -0.14 -4.08 -0.82 -4.08 -3.06 c0 -2.28 2.36 -3.08 4.16 -3.08 c1.54 0 2.7 0.3 3.84 1.3 z M251.0560000000001 20 l-2.44 0 l0 -7.58 l-1.84 0 l0 -2.14 l1.84 0 l0 -0.66 c0 -2.64 1.78 -3.86 3.76 -3.86 c0.86 0 1.76 0.28 2.56 0.8 l-0.9 1.82 c-0.52 -0.34 -1 -0.52 -1.5 -0.52 c-0.84 0 -1.48 0.56 -1.48 1.76 l0 0.66 l2.9 0 l0 2.14 l-2.9 0 l0 7.58 z M259.0120000000001 10.1 l-2.44 0 l0 9.9 l2.44 0 l0 -9.9 z M256.3520000000001 7.359999999999999 c0 -1.9 2.88 -1.9 2.88 0 s-2.88 1.9 -2.88 0 z M271.8080000000001 20 l-2.44 0 l0 -5.16 c0 -1.5 -0.82 -2.64 -2.38 -2.64 c-1.5 0 -2.52 1.26 -2.52 2.76 l0 5.04 l-2.42 0 l0 -9.88 l2.18 0 l0.16 1.34 c1 -0.98 2 -1.48 3.24 -1.48 c2.32 0 4.18 1.74 4.18 4.84 l0 5.18 z M279.5840000000001 12.18 c-1.56 0 -2.8 1.1 -2.8 2.88 c0 1.72 1.24 2.9 2.8 2.9 c1.54 0 2.86 -1.12 2.86 -2.9 c0 -1.72 -1.32 -2.88 -2.86 -2.88 z M282.60400000000016 6.02 l2.44 0 l0 13.98 l-2.28 0 l-0.16 -1.36 c-0.76 1.18 -1.98 1.58 -3.18 1.58 c-2.9 0 -5.08 -1.92 -5.08 -5.16 c0 -3.4 2.14 -5.16 5.02 -5.16 c1.04 0 2.66 0.56 3.24 1.58 l0 -5.46 z M299.9160000000001 10.12 l2.14 0 l2.16 7.42 l2.26 -7.42 l2.7 0 l-3.44 9.92 l-2.84 0 l-1.02 -2.92 l-0.88 -3.3 l-0.88 3.3 l-1.02 2.92 l-2.84 0 l-3.46 -9.92 l2.72 0 l2.26 7.42 z M319.8720000000001 11.5 l0.08 -1.36 l2.34 0 l0 9.86 l-2.3 0 l-0.12 -1.44 c-0.56 1.16 -2.1 1.72 -3.2 1.74 c-2.92 0.02 -5.08 -1.78 -5.08 -5.24 c0 -3.4 2.26 -5.18 5.14 -5.16 c1.32 0 2.58 0.62 3.14 1.6 z M316.9520000000001 12.08 c-1.62 0 -2.92 1.1 -2.92 2.98 s1.3 3 2.92 3 c3.84 0 3.84 -5.98 0 -5.98 z M332.0680000000001 10.14 l2.7 0 l-6.02 13.98 l-2.68 0 l1.84 -4.28 l-3.94 -9.7 l2.84 0 l1.5 4.26 l0.94 2.78 l1.02 -2.72 z M344.7440000000001 11.16 l-1.36 1.6 c-0.7 -0.66 -1.5 -0.88 -2.44 -0.88 c-1.16 0 -1.8 0.36 -1.8 0.98 c0 0.64 0.58 1 1.84 1.08 c1.86 0.12 4.22 0.54 4.22 3.16 c0 1.74 -1.42 3.24 -4.24 3.24 c-1.56 0 -3.12 -0.26 -4.56 -1.76 l1.2 -1.74 c0.7 0.78 2.3 1.36 3.4 1.38 c0.92 0.02 1.78 -0.46 1.78 -1.18 c0 -0.68 -0.56 -0.96 -1.96 -1.04 c-1.86 -0.14 -4.08 -0.82 -4.08 -3.06 c0 -2.28 2.36 -3.08 4.16 -3.08 c1.54 0 2.7 0.3 3.84 1.3 z M353.59600000000006 7.619999999999999 l2.44 -0.26 l0 2.8 l2.72 0 l0 2.1 l-2.74 0 l0 4.26 c0 0.94 0.52 1.4 1.28 1.4 c0.38 0 0.82 -0.12 1.18 -0.3 l0.68 2.08 c-0.7 0.28 -1.28 0.4 -2.02 0.42 c-2.14 0.08 -3.54 -1.14 -3.54 -3.6 l0 -4.26 l-1.84 0 l0 -2.1 l1.84 0 l0 -2.54 z M366.112 9.94 c3.14 0 5.16 2.32 5.16 5.14 c0 2.84 -1.94 5.14 -5.14 5.14 s-5.12 -2.3 -5.12 -5.14 c0 -2.82 1.96 -5.14 5.1 -5.14 z M366.132 12.16 c-1.76 0 -2.68 1.44 -2.68 2.92 c0 1.5 0.9 2.9 2.68 2.9 s2.68 -1.4 2.68 -2.9 c0 -1.48 -1.04 -2.92 -2.68 -2.92 z M384.24399999999997 12.18 c-1.54 0 -2.86 1.16 -2.86 2.88 c0 1.78 1.32 2.9 2.86 2.9 c1.56 0 2.8 -1.18 2.8 -2.9 c0 -1.78 -1.24 -2.88 -2.8 -2.88 z M378.784 6.02 l2.44 0 l0 5.46 c0.58 -1.02 2.2 -1.58 3.24 -1.58 c2.88 0 5.02 1.76 5.02 5.16 c0 3.24 -2.18 5.16 -5.08 5.16 c-1.2 0 -2.42 -0.4 -3.18 -1.58 l-0.16 1.36 l-2.28 0 l0 -13.98 z M401.96 15.940000000000001 l-7.7 0 c0.16 1.22 1.22 2.1 2.94 2.1 c0.9 0 2.08 -0.34 2.64 -0.92 l1.56 1.54 c-1.04 1.08 -2.74 1.6 -4.24 1.6 c-3.4 0 -5.42 -2.1 -5.42 -5.26 c0 -3 2.04 -5.16 5.24 -5.16 c3.3 0 5.36 2.04 4.98 6.1 z M394.3 13.92 l5.32 0 c-0.16 -1.28 -1.16 -1.92 -2.56 -1.92 c-1.32 0 -2.4 0.64 -2.76 1.92 z M417.472 11.16 l-1.36 1.6 c-0.7 -0.66 -1.5 -0.88 -2.44 -0.88 c-1.16 0 -1.8 0.36 -1.8 0.98 c0 0.64 0.58 1 1.84 1.08 c1.86 0.12 4.22 0.54 4.22 3.16 c0 1.74 -1.42 3.24 -4.24 3.24 c-1.56 0 -3.12 -0.26 -4.56 -1.76 l1.2 -1.74 c0.7 0.78 2.3 1.36 3.4 1.38 c0.92 0.02 1.78 -0.46 1.78 -1.18 c0 -0.68 -0.56 -0.96 -1.96 -1.04 c-1.86 -0.14 -4.08 -0.82 -4.08 -3.06 c0 -2.28 2.36 -3.08 4.16 -3.08 c1.54 0 2.7 0.3 3.84 1.3 z M430.16799999999995 15.940000000000001 l-7.7 0 c0.16 1.22 1.22 2.1 2.94 2.1 c0.9 0 2.08 -0.34 2.64 -0.92 l1.56 1.54 c-1.04 1.08 -2.74 1.6 -4.24 1.6 c-3.4 0 -5.42 -2.1 -5.42 -5.26 c0 -3 2.04 -5.16 5.24 -5.16 c3.3 0 5.36 2.04 4.98 6.1 z M422.508 13.92 l5.32 0 c-0.16 -1.28 -1.16 -1.92 -2.56 -1.92 c-1.32 0 -2.4 0.64 -2.76 1.92 z M439.76399999999995 17.14 l1.64 1.6 c-1.14 1.12 -2.34 1.56 -3.8 1.56 c-2.86 0 -5.24 -1.72 -5.24 -5.22 s2.38 -5.22 5.24 -5.22 c1.4 0 2.48 0.4 3.56 1.46 l-1.54 1.62 c-0.58 -0.52 -1.3 -0.78 -1.98 -0.78 c-1.64 0 -2.84 1.2 -2.84 2.92 c0 1.88 1.28 2.88 2.8 2.88 c0.78 0 1.56 -0.22 2.16 -0.82 z M443.43999999999994 10.14 l2.44 0 l0 5.16 c0 1.5 0.82 2.64 2.38 2.64 c1.5 0 2.52 -1.26 2.52 -2.76 l0 -5.04 l2.42 0 l0 9.88 l-2.18 0 l-0.16 -1.34 c-1.02 1 -1.96 1.48 -3.34 1.48 c-2.36 0 -4.08 -1.78 -4.08 -4.84 l0 -5.18 z M456.2559999999999 10.14 l2.26 0 l0.18 1.14 c0.76 -1.22 1.78 -1.4 2.78 -1.4 c1.02 0 2 0.4 2.54 0.94 l-1.1 2.12 c-0.5 -0.42 -0.96 -0.64 -1.76 -0.64 c-1.28 0 -2.46 0.68 -2.46 2.5 l0 5.2 l-2.44 0 l0 -9.86 z M475.6119999999999 15.940000000000001 l-7.7 0 c0.16 1.22 1.22 2.1 2.94 2.1 c0.9 0 2.08 -0.34 2.64 -0.92 l1.56 1.54 c-1.04 1.08 -2.74 1.6 -4.24 1.6 c-3.4 0 -5.42 -2.1 -5.42 -5.26 c0 -3 2.04 -5.16 5.24 -5.16 c3.3 0 5.36 2.04 4.98 6.1 z M467.95199999999994 13.92 l5.32 0 c-0.16 -1.28 -1.16 -1.92 -2.56 -1.92 c-1.32 0 -2.4 0.64 -2.76 1.92 z M478.3279999999999 18.74 c0 -1.9 2.88 -1.9 2.88 0 s-2.88 1.9 -2.88 0 z M484.8039999999999 6.02 l2.62 0 l0 10.32 l-2.62 0 l0 -10.32 z M484.5239999999999 18.56 c0 -2.12 3.2 -2.12 3.2 0 c0 2.1 -3.2 2.1 -3.2 0 z"/></g>
			</g>
		</svg>